<svg id="visual" viewBox="0 0 900 600" width="900" height="600" xmlns="http://www.w3.org/2000/svg" xmlns:xlink="http://www.w3.org/1999/xlink" version="1.1"><path d="M0 37L16.7 43C33.3 49 66.7 61 100 59C133.3 57 166.7 41 200 40C233.3 39 266.7 53 300 59C333.3 65 366.7 63 400 63C433.3 63 466.7 65 500 65C533.3 65 566.7 63 600 57C633.3 51 666.7 41 700 40C733.3 39 766.7 47 800 53C833.3 59 866.7 63 883.3 65L900 67L900 0L883.3 0C866.7 0 833.3 0 800 0C766.7 0 733.3 0 700 0C666.7 0 633.3 0 600 0C566.7 0 533.3 0 500 0C466.7 0 433.3 0 400 0C366.7 0 333.3 0 300 0C266.7 0 233.3 0 200 0C166.7 0 133.3 0 100 0C66.7 0 33.3 0 16.7 0L0 0Z" fill="#6198ff"></path><path d="M0 235L16.7 225C33.3 215 66.7 195 100 191C133.3 187 166.7 199 200 192C233.3 185 266.7 159 300 155C333.3 151 366.7 169 400 168C433.3 167 466.7 147 500 151C533.3 155 566.7 183 600 183C633.3 183 666.7 155 700 147C733.3 139 766.7 151 800 164C833.3 177 866.7 191 883.3 198L900 205L900 65L883.3 63C866.7 61 833.3 57 800 51C766.7 45 733.3 37 700 38C666.7 39 633.3 49 600 55C566.7 61 533.3 63 500 63C466.7 63 433.3 61 400 61C366.7 61 333.3 63 300 57C266.7 51 233.3 37 200 38C166.7 39 133.3 55 100 57C66.7 59 33.3 47 16.7 41L0 35Z" fill="#4c8aff"></path><path d="M0 277L16.7 266C33.3 255 66.7 233 100 226C133.3 219 166.7 227 200 220C233.3 213 266.7 191 300 191C333.3 191 366.7 213 400 213C433.3 213 466.7 191 500 191C533.3 191 566.7 213 600 214C633.3 215 666.7 195 700 192C733.3 189 766.7 203 800 214C833.3 225 866.7 233 883.3 237L900 241L900 203L883.3 196C866.7 189 833.3 175 800 162C766.7 149 733.3 137 700 145C666.7 153 633.3 181 600 181C566.7 181 533.3 153 500 149C466.7 145 433.3 165 400 166C366.7 167 333.3 149 300 153C266.7 157 233.3 183 200 190C166.7 197 133.3 185 100 189C66.7 193 33.3 213 16.7 223L0 233Z" fill="#367cff"></path><path d="M0 391L16.7 385C33.3 379 66.7 367 100 369C133.3 371 166.7 387 200 389C233.3 391 266.7 379 300 378C333.3 377 366.7 387 400 387C433.3 387 466.7 377 500 373C533.3 369 566.7 371 600 374C633.3 377 666.7 381 700 372C733.3 363 766.7 341 800 341C833.3 341 866.7 363 883.3 374L900 385L900 239L883.3 235C866.7 231 833.3 223 800 212C766.7 201 733.3 187 700 190C666.7 193 633.3 213 600 212C566.7 211 533.3 189 500 189C466.7 189 433.3 211 400 211C366.7 211 333.3 189 300 189C266.7 189 233.3 211 200 218C166.7 225 133.3 217 100 224C66.7 231 33.3 253 16.7 264L0 275Z" fill="#196eff"></path><path d="M0 439L16.7 439C33.3 439 66.7 439 100 439C133.3 439 166.7 439 200 436C233.3 433 266.7 427 300 427C333.3 427 366.7 433 400 433C433.3 433 466.7 427 500 423C533.3 419 566.7 417 600 425C633.3 433 666.7 451 700 446C733.3 441 766.7 413 800 413C833.3 413 866.7 441 883.3 455L900 469L900 383L883.3 372C866.7 361 833.3 339 800 339C766.7 339 733.3 361 700 370C666.7 379 633.3 375 600 372C566.7 369 533.3 367 500 371C466.7 375 433.3 385 400 385C366.7 385 333.3 375 300 376C266.7 377 233.3 389 200 387C166.7 385 133.3 369 100 367C66.7 365 33.3 377 16.7 383L0 389Z" fill="#0062f5"></path><path d="M0 469L16.7 468C33.3 467 66.7 465 100 468C133.3 471 166.7 479 200 477C233.3 475 266.7 463 300 460C333.3 457 366.7 463 400 467C433.3 471 466.7 473 500 471C533.3 469 566.7 463 600 466C633.3 469 666.7 481 700 477C733.3 473 766.7 453 800 459C833.3 465 866.7 497 883.3 513L900 529L900 467L883.3 453C866.7 439 833.3 411 800 411C766.7 411 733.3 439 700 444C666.7 449 633.3 431 600 423C566.7 415 533.3 417 500 421C466.7 425 433.3 431 400 431C366.7 431 333.3 425 300 425C266.7 425 233.3 431 200 434C166.7 437 133.3 437 100 437C66.7 437 33.3 437 16.7 437L0 437Z" fill="#005be1"></path><path d="M0 523L16.7 523C33.3 523 66.7 523 100 526C133.3 529 166.7 535 200 538C233.3 541 266.7 541 300 541C333.3 541 366.7 541 400 545C433.3 549 466.7 557 500 561C533.3 565 566.7 565 600 565C633.3 565 666.7 565 700 561C733.3 557 766.7 549 800 549C833.3 549 866.7 557 883.3 561L900 565L900 527L883.3 511C866.7 495 833.3 463 800 457C766.7 451 733.3 471 700 475C666.7 479 633.3 467 600 464C566.7 461 533.3 467 500 469C466.7 471 433.3 469 400 465C366.7 461 333.3 455 300 458C266.7 461 233.3 473 200 475C166.7 477 133.3 469 100 466C66.7 463 33.3 465 16.7 466L0 467Z" fill="#0053ce"></path><path d="M0 601L16.7 601C33.3 601 66.7 601 100 601C133.3 601 166.7 601 200 601C233.3 601 266.7 601 300 601C333.3 601 366.7 601 400 601C433.3 601 466.7 601 500 601C533.3 601 566.7 601 600 601C633.3 601 666.7 601 700 601C733.3 601 766.7 601 800 601C833.3 601 866.7 601 883.3 601L900 601L900 563L883.3 559C866.7 555 833.3 547 800 547C766.7 547 733.3 555 700 559C666.7 563 633.3 563 600 563C566.7 563 533.3 563 500 559C466.7 555 433.3 547 400 543C366.7 539 333.3 539 300 539C266.7 539 233.3 539 200 536C166.7 533 133.3 527 100 524C66.7 521 33.3 521 16.7 521L0 521Z" fill="#004cbb"></path></svg>